<?xml version="1.0" standalone="no"?>
<!DOCTYPE svg PUBLIC "-//W3C//DTD SVG 20010904//EN"
 "http://www.w3.org/TR/2001/REC-SVG-20010904/DTD/svg10.dtd">
<svg version="1.0" xmlns="http://www.w3.org/2000/svg"
 width="512.000000pt" height="512.000000pt" viewBox="0 0 512.000000 512.000000"
 preserveAspectRatio="xMidYMid meet">
<metadata>
Created by potrace 1.14, written by Peter Selinger 2001-2017
</metadata>
<g transform="translate(0.000000,512.000000) scale(0.100000,-0.100000)"
fill="#000000" stroke="none">
<path d="M0 2560 l0 -2560 2560 0 2560 0 0 2560 0 2560 -2560 0 -2560 0 0
-2560z m2931 2392 c240 -45 469 -121 669 -222 291 -146 567 -367 770 -616 270
-330 449 -735 517 -1169 24 -154 24 -514 0 -680 -126 -842 -692 -1556 -1487
-1872 -140 -56 -332 -108 -520 -140 -162 -28 -560 -25 -730 5 -511 92 -922
299 -1278 647 -281 273 -481 590 -601 950 -93 280 -128 527 -118 830 13 378
92 684 267 1023 180 352 455 655 800 883 259 171 538 286 846 348 174 36 232
40 499 36 206 -3 282 -7 366 -23z"/>
<path d="M1070 4401 c0 -7 72 -134 272 -481 52 -91 109 -190 126 -220 17 -30
125 -219 240 -420 l209 -365 339 -2 c335 -3 339 -3 379 20 21 12 52 41 68 64
l30 41 -31 54 c-125 222 -290 512 -316 558 -17 30 -37 68 -43 83 l-13 29 158
-4 c142 -3 163 -6 220 -30 189 -79 337 -254 372 -442 26 -142 -4 -293 -85
-421 -52 -81 -158 -173 -251 -217 l-82 -38 -819 0 c-451 0 -822 -2 -824 -4 -2
-2 -2 -196 1 -430 4 -370 7 -428 21 -443 9 -10 70 -70 135 -133 347 -334 579
-557 603 -577 l26 -23 6 202 c3 112 7 303 8 426 l1 222 538 0 c304 0 563 4
598 10 245 40 538 226 699 445 17 22 33 42 36 45 14 10 105 168 128 220 45
103 49 115 75 220 63 258 51 540 -33 770 -177 483 -632 818 -1136 836 -220 8
-1655 12 -1655 5z"/>
<path d="M3395 1714 c-155 -87 -329 -139 -525 -156 -69 -6 -126 -12 -128 -13
-2 -2 27 -55 116 -212 21 -38 61 -108 89 -158 28 -49 87 -153 131 -230 l79
-140 442 -3 c242 -1 441 1 441 5 0 17 -564 943 -574 942 -6 -1 -38 -16 -71
-35z"/>
</g>
</svg>
